<svg width="46" height="43" viewBox="0 0 46 43" fill="none" xmlns="http://www.w3.org/2000/svg">
<path d="M43.8858 15.125H33.5695L26.3175 1.14201C26.0575 0.640679 25.6179 0.270613 25.0795 0.0999098C24.5411 -0.0707933 23.9686 -0.0215589 23.4673 0.238449C23.293 0.328832 23.137 0.440597 23 0.568445C22.8629 0.440687 22.7069 0.328832 22.5326 0.238449C22.0314 -0.0215589 21.4587 -0.0707035 20.9204 0.0999098C20.382 0.270523 19.9424 0.640679 19.6824 1.14201L12.0383 15.8811C11.7783 16.3824 11.7291 16.955 11.8998 17.4933C11.958 17.677 12.0412 17.8483 12.1433 18.0058H2.1142C1.69149 18.0058 1.34766 17.6619 1.34766 17.2392C1.34766 16.8166 1.69158 16.4727 2.1142 16.4727H9.79629C10.1684 16.4727 10.4701 16.1711 10.4701 15.7988C10.4701 15.4267 10.1684 15.125 9.79629 15.125H2.1142C0.94848 15.125 0 16.0735 0 17.2392C0 18.206 0.652445 19.0227 1.54001 19.2736L5.44273 40.0877C5.69385 41.4274 6.8655 42.3998 8.22861 42.3998H37.7715C39.1346 42.3998 40.3062 41.4274 40.5574 40.0877L44.4601 19.2735C45.3476 19.0227 46 18.206 46 17.2392C46 16.0734 45.0515 15.125 43.8858 15.125ZM24.0877 1.4349C24.2695 1.34065 24.4771 1.32277 24.6723 1.38468C24.8674 1.44649 25.0269 1.58071 25.1211 1.76247L32.7652 16.5016C32.8595 16.6834 32.8773 16.891 32.8154 17.0861C32.7536 17.2814 32.6194 17.4407 32.4375 17.535C32.2559 17.6293 32.0483 17.6471 31.853 17.5853C31.6578 17.5235 31.4984 17.3893 31.4042 17.2075L23.7602 2.46828C23.5656 2.09309 23.7126 1.6295 24.0877 1.4349ZM33.0606 19.3535L32.423 25.9281H23.6738V19.3535H33.0606ZM23 3.92968L30.208 17.8278C30.2398 17.8892 30.2745 17.9485 30.3116 18.0058H15.6884C15.7255 17.9485 15.7602 17.8892 15.792 17.8279L16.4949 16.4728H26.751C27.1231 16.4728 27.4248 16.1712 27.4248 15.7989C27.4248 15.4268 27.1231 15.1251 26.751 15.1251H17.1938L23 3.92968ZM13.2347 16.5015L20.8789 1.76238C20.9731 1.58062 21.1325 1.4464 21.3277 1.38459C21.4041 1.36033 21.4824 1.34838 21.5603 1.34838C21.6815 1.34838 21.8017 1.37749 21.9123 1.43481C22.2874 1.6295 22.4344 2.093 22.2398 2.46819L14.5957 17.2073C14.5014 17.3891 14.342 17.5233 14.1468 17.5851C13.9517 17.6469 13.7441 17.6291 13.5623 17.5348C13.3805 17.4406 13.2463 17.2812 13.1845 17.0859C13.1226 16.8909 13.1405 16.6834 13.2347 16.5015ZM2.92612 19.3535H11.5854L12.2231 25.9281H4.15887L2.92612 19.3535ZM4.4116 27.2757H12.3538L12.9914 33.8502H5.64425L4.4116 27.2757ZM8.22852 41.0522C7.51354 41.0522 6.89901 40.5422 6.7673 39.8394L5.89698 35.1978H13.122L13.6899 41.0522H8.22852ZM22.3262 41.0522H15.0437L14.476 35.1978H22.3262V41.0522ZM22.3262 33.8502H14.3453L13.7076 27.2757H22.3262V33.8502ZM22.3262 25.9281H13.577L12.9394 19.3535H22.3262V25.9281ZM30.9563 41.0522H23.6738V35.1978H31.524L30.9563 41.0522ZM31.6547 33.8503H23.6738V27.2758H32.2924L31.6547 33.8503ZM39.2327 39.8394C39.101 40.5422 38.4864 41.0522 37.7714 41.0522H32.3102L32.878 35.1978H40.103L39.2327 39.8394ZM40.3557 33.8503H33.0087L33.6463 27.2758H41.5885L40.3557 33.8503ZM41.8411 25.928H33.777L34.4146 19.3534H43.0739L41.8411 25.928ZM43.8858 18.0059H43.8748C43.8744 18.0059 43.874 18.0059 43.8736 18.0059H33.8567C33.9588 17.8484 34.0419 17.6771 34.1002 17.4934C34.2065 17.158 34.2274 16.8092 34.1652 16.4728H43.8858C44.3085 16.4728 44.6523 16.8167 44.6523 17.2393C44.6523 17.6619 44.3084 18.0059 43.8858 18.0059Z" fill="white"/>
</svg>
