<svg width="21" height="24" viewBox="0 0 21 24" fill="none" xmlns="http://www.w3.org/2000/svg">
<path d="M18.4424 8.19902L18.5578 8.20059C18.9859 8.23599 19.3141 8.59152 19.3368 9.01946L19.3258 9.25807L18.961 13.7257L18.5783 18.0857C18.4973 18.9561 18.4248 19.6902 18.3623 20.2681C18.1449 22.2821 16.8375 23.5275 14.8667 23.5644C11.7957 23.6211 8.84384 23.6205 5.97729 23.5585C4.06348 23.5184 2.77545 22.2595 2.56186 20.2763L2.41424 18.8151L2.15629 15.981L1.89205 12.8709L1.58993 9.13758C1.55238 8.6586 1.90058 8.23909 2.36766 8.20058C2.79582 8.16528 3.17525 8.46238 3.26444 8.88109L3.29915 9.22326L3.58284 12.7231L3.89261 16.3508C4.03155 17.9213 4.15206 19.1922 4.24849 20.085C4.3702 21.2151 4.96531 21.7968 6.01254 21.8187C8.8567 21.8803 11.7866 21.8808 14.8359 21.8245C15.9468 21.8037 16.5514 21.2278 16.6757 20.0763L16.8227 18.623C16.8657 18.1752 16.9117 17.6807 16.9603 17.1436L17.2704 13.5759L17.6439 8.99794C17.6784 8.55887 18.0251 8.22232 18.4424 8.19902ZM0.870308 6.19254C0.401718 6.19254 0.0218506 5.80299 0.0218506 5.32246C0.0218506 4.88198 0.341045 4.51794 0.755177 4.46033L0.870308 4.45239H4.56664C5.00589 4.45239 5.39043 4.16254 5.52798 3.74494L5.56164 3.61599L5.84889 2.15105C6.10186 1.18083 6.92329 0.490042 7.8859 0.41213L8.06794 0.404785H12.8566C13.8352 0.404785 14.6993 1.0385 15.032 2.01772L15.088 2.2053L15.3629 3.61564C15.4491 4.05749 15.8016 4.3875 16.228 4.44385L16.3579 4.45239H20.0545C20.5231 4.45239 20.9029 4.84193 20.9029 5.32246C20.9029 5.76295 20.5838 6.12698 20.1696 6.1846L20.0545 6.19254H0.870308ZM12.8566 2.14494H8.06794C7.82988 2.14494 7.61827 2.28782 7.53037 2.4674L7.50056 2.5463L7.22559 3.95734C7.19196 4.12956 7.14322 4.2954 7.08096 4.45353L13.8437 4.45375C13.8049 4.3551 13.7713 4.25344 13.7433 4.14909L13.6989 3.95699L13.4364 2.60055C13.375 2.36519 13.1855 2.19288 12.9568 2.15348L12.8566 2.14494Z" fill="#9A0000"/>
</svg>
