<svg width="103" height="38" viewBox="0 0 103 38" fill="none" xmlns="http://www.w3.org/2000/svg">
<path d="M5.59509 31.4447L10.2134 31.4447V37.1361C9.00241 37.648 7.64005 37.904 6.12632 37.904C4.1499 37.904 2.63332 37.3494 1.57656 36.2401C0.525521 35.1252 0 33.5494 0 31.513C0 30.2444 0.259905 29.121 0.779714 28.1425C1.30523 27.1584 2.05353 26.399 3.0246 25.8643C4.00139 25.3296 5.12098 25.0622 6.38337 25.0622C7.74858 25.0622 8.97385 25.3125 10.0592 25.8131L9.70786 26.5981C8.62255 26.0975 7.49725 25.8472 6.33196 25.8472C4.68114 25.8472 3.37019 26.3563 2.39912 27.3746C1.43376 28.3871 0.951079 29.7552 0.951079 31.4788C0.951079 33.356 1.41091 34.7696 2.33057 35.7196C3.25023 36.6639 4.60117 37.1361 6.38337 37.1361C7.53723 37.1361 8.51687 36.9739 9.32229 36.6497V32.2639H5.59509V31.4447Z" fill="#222222"/>
<path d="M25.468 32.298V37.7333H24.5941V25.2585H27.5758C29.1295 25.2585 30.2777 25.5457 31.0203 26.1203C31.7629 26.6891 32.1342 27.5481 32.1342 28.6972C32.1342 29.5334 31.9114 30.2387 31.4658 30.8133C31.026 31.3878 30.3548 31.8002 29.4523 32.0505L32.8539 37.7333H31.8086L28.5783 32.298H25.468ZM25.468 31.5471H27.8586C28.9153 31.5471 29.735 31.3139 30.3177 30.8474C30.9003 30.3753 31.1916 29.6813 31.1916 28.7654C31.1916 27.8154 30.906 27.1243 30.3348 26.692C29.7636 26.2596 28.8325 26.0435 27.5416 26.0435H25.468V31.5471Z" fill="#222222"/>
<path d="M56.7319 31.4788C56.7319 33.4584 56.2349 35.0256 55.241 36.1804C54.2471 37.3295 52.8762 37.904 51.1282 37.904C49.386 37.904 48.0179 37.3295 47.024 36.1804C46.0301 35.0256 45.5331 33.4527 45.5331 31.4618C45.5331 29.4765 46.033 27.915 47.0326 26.7773C48.0379 25.6339 49.4089 25.0622 51.1454 25.0622C52.8933 25.0622 54.2614 25.6367 55.2496 26.7858C56.2378 27.9292 56.7319 29.4935 56.7319 31.4788ZM46.4842 31.4788C46.4842 33.265 46.8841 34.6473 47.6838 35.6258C48.4835 36.5985 49.6316 37.0849 51.1282 37.0849C52.6362 37.0849 53.7872 36.6013 54.5812 35.6343C55.3809 34.6672 55.7808 33.2821 55.7808 31.4788C55.7808 29.6813 55.3809 28.3047 54.5812 27.349C53.7872 26.3876 52.642 25.907 51.1454 25.907C49.6545 25.907 48.5035 26.3905 47.6923 27.3575C46.8869 28.3246 46.4842 29.6983 46.4842 31.4788Z" fill="#222222"/>
<path d="M79.9514 25.2585V33.3304C79.9514 34.764 79.5344 35.8846 78.7004 36.6923C77.8665 37.5001 76.704 37.904 75.2132 37.904C73.7623 37.904 72.6284 37.5001 71.8115 36.6923C71.0004 35.8789 70.5948 34.7469 70.5948 33.2963V25.2585H71.4774V33.3304C71.4774 34.5307 71.8115 35.4665 72.4799 36.1377C73.1482 36.8033 74.0936 37.1361 75.316 37.1361C76.5098 37.1361 77.4352 36.809 78.0921 36.1548C78.749 35.4949 79.0774 34.5819 79.0774 33.4158V25.2585H79.9514Z" fill="#222222"/>
<path d="M102.154 28.8422C102.154 30.0482 101.743 30.9726 100.92 31.6154C100.098 32.2582 98.9323 32.5796 97.4243 32.5796H95.4879V37.7333H94.6139V25.2585H97.6814C100.663 25.2585 102.154 26.4531 102.154 28.8422ZM95.4879 31.8287H97.2101C98.621 31.8287 99.6406 31.5983 100.269 31.1375C100.897 30.6711 101.211 29.9173 101.211 28.8763C101.211 27.915 100.914 27.2039 100.32 26.7432C99.7263 26.2767 98.8066 26.0435 97.5614 26.0435H95.4879V31.8287Z" fill="#222222"/>
<path d="M1.11863e-06 0.0755842L5.85593 0.0755842C8.52435 0.0755842 10.4592 0.449306 11.6604 1.19675C12.8702 1.93579 13.4751 3.11575 13.4751 4.73661C13.4751 5.83678 13.2091 6.73959 12.6771 7.44504C12.1537 8.15049 11.4545 8.5746 10.5793 8.71737V8.84335C11.7719 9.10369 12.6299 9.59079 13.1533 10.3046C13.6853 11.0185 13.9513 11.9675 13.9513 13.1516C13.9513 14.8313 13.3292 16.1414 12.0851 17.082C10.8496 18.0226 9.16785 18.4929 7.03999 18.4929L1.11863e-06 18.4929L1.11863e-06 0.0755842ZM3.98975 7.36945L6.30639 7.36945C7.38748 7.36945 8.16827 7.20569 8.64876 6.87816C9.13782 6.55063 9.38236 6.00894 9.38236 5.2531C9.38236 4.54765 9.11637 4.04375 8.58441 3.74142C8.06102 3.43068 7.22875 3.27531 6.08759 3.27531L3.98975 3.27531L3.98975 7.36945ZM3.98975 10.4684L3.98975 15.268H6.58953C7.68778 15.268 8.4986 15.0622 9.02199 14.6507C9.54538 14.2392 9.80707 13.6093 9.80707 12.7611C9.80707 11.2326 8.69166 10.4684 6.46083 10.4684H3.98975Z" fill="#222222"/>
<path d="M28.6876 18.4929L27.3234 14.109L20.4636 14.109L19.0993 18.4929L14.8007 18.4929L21.4417 0L26.3195 0L32.9863 18.4929L28.6876 18.4929ZM26.371 10.8337C25.1097 6.86136 24.3976 4.61483 24.2345 4.09414C24.0801 3.57345 23.9686 3.16194 23.8999 2.8596C23.6168 3.93458 22.8059 6.59262 21.4674 10.8337L26.371 10.8337Z" fill="#222222"/>
<path d="M50.6827 0.0755842V11.9927C50.6827 13.3532 50.3696 14.5458 49.7432 15.5703C49.1254 16.5949 48.2288 17.3802 47.0534 17.926C45.8779 18.4719 44.4879 18.7449 42.8834 18.7449C40.4638 18.7449 38.5848 18.1402 37.2463 16.9309C35.9078 15.7131 35.2385 14.0503 35.2385 11.9423V0.0755842L39.2154 0.0755842V11.3502C39.2154 12.7695 39.5071 13.8109 40.0906 14.4744C40.674 15.1378 41.6393 15.4696 42.9864 15.4696C44.2906 15.4696 45.2344 15.1378 45.8178 14.4744C46.4098 13.8025 46.7059 12.7527 46.7059 11.325V0.0755842L50.6827 0.0755842Z" fill="#222222"/>
<path d="M66.5517 18.4929L65.1874 14.109L58.3276 14.109L56.9634 18.4929L52.6648 18.4929L59.3058 0L64.1835 0L70.8503 18.4929L66.5517 18.4929ZM64.235 10.8337C62.9738 6.86136 62.2616 4.61483 62.0986 4.09414C61.9441 3.57345 61.8326 3.16194 61.764 2.8596C61.4808 3.93458 60.67 6.59262 59.3315 10.8337L64.235 10.8337Z" fill="#222222"/>
<path d="M77.221 8.25127H78.5081C79.7693 8.25127 80.7003 8.04551 81.3009 7.634C81.9015 7.22249 82.2018 6.57582 82.2018 5.69401C82.2018 4.82059 81.8929 4.19912 81.2751 3.8296C80.6659 3.46007 79.7178 3.27531 78.4308 3.27531L77.221 3.27531V8.25127ZM77.221 11.4258V18.4929H73.2313V0.0755842L78.714 0.0755842C81.2708 0.0755842 83.1628 0.533288 84.3897 1.4487C85.6167 2.35571 86.2301 3.73722 86.2301 5.59323C86.2301 6.6766 85.9256 7.6424 85.3164 8.49062C84.7072 9.33044 83.8449 9.98971 82.7295 10.4684C85.5609 14.6087 87.4056 17.2836 88.2636 18.4929H83.8363L79.3446 11.4258L77.221 11.4258Z" fill="#222222"/>
<path d="M97.8905 18.4929L93.9008 18.4929V3.3257L88.7913 3.3257V0.0755842L103 0.0755842V3.3257L97.8905 3.3257V18.4929Z" fill="#222222"/>
</svg>
