<svg width="24" height="24" viewBox="0 0 24 24" fill="none" xmlns="http://www.w3.org/2000/svg">
<path d="M23 23L16.7143 16.7143M10.4286 19.8571C9.19039 19.8571 7.96434 19.6133 6.82041 19.1394C5.67649 18.6656 4.63709 17.9711 3.76156 17.0956C2.88604 16.2201 2.19154 15.1807 1.71771 14.0367C1.24388 12.8928 1 11.6667 1 10.4286C1 9.19039 1.24388 7.96434 1.71771 6.82041C2.19154 5.67649 2.88604 4.63709 3.76156 3.76156C4.63709 2.88604 5.67649 2.19154 6.82041 1.71771C7.96434 1.24388 9.19039 1 10.4286 1C12.9292 1 15.3274 1.99336 17.0956 3.76156C18.8638 5.52976 19.8571 7.92796 19.8571 10.4286C19.8571 12.9292 18.8638 15.3274 17.0956 17.0956C15.3274 18.8638 12.9292 19.8571 10.4286 19.8571Z" stroke="white" stroke-width="1.57143"/>
</svg>
